<?xml version="1.0" standalone="no"?>
<!DOCTYPE svg PUBLIC "-//W3C//DTD SVG 20010904//EN"
 "http://www.w3.org/TR/2001/REC-SVG-20010904/DTD/svg10.dtd">
<svg version="1.0" xmlns="http://www.w3.org/2000/svg"
 width="700.000000pt" height="700.000000pt" viewBox="0 0 700.000000 700.000000"
 preserveAspectRatio="xMidYMid meet">
<metadata>
Created by potrace 1.14, written by Peter Selinger 2001-2017
</metadata>
<g transform="translate(0.000000,700.000000) scale(0.100000,-0.100000)"
fill="#000000" stroke="none">
<path d="M2040 5604 c-354 -65 -640 -275 -776 -568 -104 -227 -118 -538 -34
-796 93 -286 279 -598 482 -809 l61 -63 156 7 c86 3 183 8 216 10 170 10 312
17 328 17 9 0 17 3 17 7 0 5 -8 11 -17 15 -79 27 -290 193 -448 351 -208 208
-297 357 -349 587 -57 250 -5 466 149 613 127 121 329 188 493 163 149 -23
406 -140 572 -261 49 -36 207 -163 220 -177 3 -3 55 -48 115 -100 61 -52 115
-100 120 -105 27 -29 154 -135 161 -135 10 0 27 15 137 113 40 35 90 79 112
98 22 19 45 39 50 45 6 6 39 35 75 65 36 30 67 56 70 59 64 64 247 193 360
253 322 172 517 192 743 75 135 -70 233 -187 283 -338 27 -83 25 -277 -5 -390
-43 -162 -106 -294 -194 -405 -118 -148 -395 -393 -550 -486 -32 -18 -57 -37
-57 -41 0 -5 26 -8 58 -9 31 -1 80 -2 107 -4 75 -5 252 -14 407 -21 l137 -6
68 72 c198 210 380 514 467 782 45 136 57 208 61 346 6 292 -77 523 -261 721
-55 60 -182 161 -202 161 -6 0 -12 4 -14 8 -3 9 -149 80 -203 100 -58 21 -129
38 -225 52 -66 10 -307 7 -370 -4 -306 -56 -556 -197 -845 -476 -129 -125
-205 -207 -205 -221 0 -8 -9 0 -19 16 -35 56 -256 271 -377 367 -200 158 -382
250 -594 299 -111 26 -372 33 -480 13z m1467 -926 c-3 -8 -6 -5 -6 6 -1 11 2
17 5 13 3 -3 4 -12 1 -19z m0 -120 c-3 -8 -6 -5 -6 6 -1 11 2 17 5 13 3 -3 4
-12 1 -19z"/>
<path d="M2588 3205 c-2 -2 -66 -6 -143 -10 -77 -4 -153 -9 -170 -10 -71 -5
-282 -18 -302 -19 -13 0 -23 -1 -23 -2 0 -3 224 -170 315 -235 175 -125 422
-283 624 -399 l74 -43 -259 -87 c-254 -85 -389 -133 -429 -150 -11 -5 -87 -34
-170 -65 -141 -53 -295 -114 -340 -135 -11 -5 -101 -43 -200 -85 -200 -86
-221 -95 -454 -207 -90 -43 -167 -78 -171 -78 -31 0 -37 -427 -6 -458 2 -1 39
14 82 34 282 129 466 215 584 271 547 263 1190 530 1343 559 12 2 33 6 47 9
27 6 108 21 155 30 156 26 589 27 726 0 13 -3 51 -10 84 -16 151 -27 276 -65
467 -143 342 -139 707 -302 1142 -510 76 -36 140 -66 141 -66 2 0 47 -21 102
-46 205 -96 266 -124 273 -124 17 0 28 264 15 370 -10 77 -13 85 -47 101 -18
8 -132 62 -253 118 -478 224 -969 419 -1497 596 l-247 83 122 71 c147 86 199
118 320 196 77 50 339 231 372 257 6 4 52 40 103 78 50 39 92 72 92 74 0 1
-15 3 -32 3 -31 1 -108 6 -278 18 -41 2 -115 7 -165 10 -49 3 -129 8 -177 11
-54 4 -94 2 -107 -5 -18 -10 -197 -136 -345 -243 -69 -50 -276 -175 -323 -195
-80 -34 -222 -21 -308 27 -98 55 -230 140 -337 218 -287 206 -281 203 -342
201 -31 -1 -57 -3 -58 -4z"/>
</g>
</svg>
