<svg id="Layer_1" data-name="Layer 1" xmlns="http://www.w3.org/2000/svg" xmlns:xlink="http://www.w3.org/1999/xlink" viewBox="0 0 374.62 326.66"><defs><style>.cls-1{fill:#fff;}.cls-2{fill:none;}.cls-3{clip-path:url(#clip-path);}.cls-4{clip-path:url(#clip-path-2);}.cls-5{clip-path:url(#clip-path-3);}.cls-6{fill:#be1e2d;}.cls-7{clip-path:url(#clip-path-6);}</style><clipPath id="clip-path" transform="translate(-65.38 -96.58)"><rect class="cls-1" x="83.77" y="96.58" width="166.62" height="162.95"/></clipPath><clipPath id="clip-path-2" transform="translate(-65.38 -96.58)"><rect class="cls-1" x="250.38" y="96.58" width="166.62" height="162.95"/></clipPath><clipPath id="clip-path-3" transform="translate(-65.38 -96.58)"><rect class="cls-2" x="65.38" y="273.47" width="187.31" height="149.76"/></clipPath><clipPath id="clip-path-6" transform="translate(-65.38 -96.58)"><rect class="cls-2" x="252.69" y="273.47" width="187.31" height="149.76"/></clipPath></defs><g id="Layer_1-2" data-name="Layer 1"><g id="_Mirror_Repeat_" data-name="&lt;Mirror Repeat&gt;"><rect class="cls-1" x="18.39" width="166.62" height="162.95"/><g class="cls-3"><g id="_Mirror_Repeat_2" data-name="&lt;Mirror Repeat&gt;"><path class="cls-1" d="M126.72,259.53l52-2.68a149.32,149.32,0,0,1-32.13-24.57c-8.88-8.95-16.29-16.37-21.54-28.39-2.66-6.09-14.63-33.54.28-54.78,10.48-14.91,27.73-17.5,29.76-17.77,11.71-1.58,20.53,2.4,31.75,7.45l1.85.86c13.58,6.6,23.17,14.64,30.46,20.94,10.89,9.39,21.18,18.53,31.26,27.8q0-6.76,0-13.53,0-13.58,0-27.16c-2.68-3.12-6.33-7.2-10.86-11.77-6.52-6.59-12.44-11.77-15.58-14.34-5.29-4.34-18.68-15.3-36.57-20.93-5.73-1.8-36.38-10.75-66.08,5.63a70.79,70.79,0,0,0-26.31,24c-9.57,14.9-10.65,29.37-11.07,36.08-1.39,22.37,6.74,39,13.32,52.49A149,149,0,0,0,126.72,259.53Z" transform="translate(-65.38 -96.58)"/><path class="cls-1" d="M250.54,192.1" transform="translate(-65.38 -96.58)"/></g></g></g><g id="_Mirror_Repeat_3" data-name="&lt;Mirror Repeat&gt;"><rect class="cls-1" x="185" width="166.62" height="162.95"/><g class="cls-4"><g id="_Mirror_Repeat_4" data-name="&lt;Mirror Repeat&gt;"><path class="cls-1" d="M374.05,259.53l-52-2.68a149.32,149.32,0,0,0,32.13-24.57c8.87-8.95,16.28-16.37,21.53-28.39,2.66-6.09,14.64-33.54-.28-54.78-10.48-14.91-27.72-17.5-29.75-17.77-11.71-1.58-20.53,2.4-31.75,7.45l-1.85.86c-13.58,6.6-23.17,14.64-30.46,20.94-10.89,9.39-21.19,18.53-31.27,27.8q0-6.76,0-13.53,0-13.58,0-27.16c2.68-3.12,6.33-7.2,10.86-11.77,6.53-6.59,12.45-11.77,15.59-14.34,5.29-4.34,18.68-15.3,36.57-20.93,5.73-1.8,36.38-10.75,66.07,5.63a70.8,70.8,0,0,1,26.32,24c9.57,14.9,10.65,29.37,11.07,36.08,1.39,22.37-6.74,39-13.32,52.49A148.83,148.83,0,0,1,374.05,259.53Z" transform="translate(-65.38 -96.58)"/><path class="cls-1" d="M250.23,192.1" transform="translate(-65.38 -96.58)"/></g></g></g></g><g id="The_Kay" data-name="The Kay"><g id="_Mirror_Repeat_5" data-name="&lt;Mirror Repeat&gt;"><g class="cls-5"><path class="cls-6" d="M213.62,327.85c-22.54,7.38-46.4,16-71.25,26.3C115.06,365.41,89.85,377.2,66.82,389v.8a97.84,97.84,0,0,0,0,33.46c22.09-10.46,39.9-19.19,51.78-25.09,3.53-1.75,36.77-18.24,74-33.76a146.17,146.17,0,0,1,39.5-10.13,149.75,149.75,0,0,1,20.57-.95V308.66a22.81,22.81,0,0,1-6-.57,24.15,24.15,0,0,1-8-3.5c-5.57-3.7-11.55-6.75-16.84-10.87-6.68-5.2-15.32-11.62-27.47-20.25q-27,1.77-54.08,3.57c11.69,9.56,24.68,19.4,39,29.18C191.13,314.3,202.63,321.48,213.62,327.85Z" transform="translate(-65.38 -96.58)"/></g><g class="cls-5"><path class="cls-6" d="M298.91,398.52" transform="translate(-65.38 -96.58)"/></g><g class="cls-5"><path class="cls-6" d="M731.63,205.59" transform="translate(-65.38 -96.58)"/></g></g><g id="_Mirror_Repeat_6" data-name="&lt;Mirror Repeat&gt;"><g class="cls-7"><path class="cls-6" d="M291.76,327.85c22.54,7.38,46.4,16,71.26,26.3,27.31,11.26,52.52,23.05,75.55,34.84v.8a98.51,98.51,0,0,1,0,33.46c-22.09-10.46-39.9-19.19-51.79-25.09-3.53-1.75-36.77-18.24-74-33.76a146.07,146.07,0,0,0-39.5-10.13,149.67,149.67,0,0,0-20.56-.95V308.66a22.78,22.78,0,0,0,6-.57,24.15,24.15,0,0,0,8-3.5c5.57-3.7,11.55-6.75,16.84-10.87,6.68-5.2,15.33-11.62,27.47-20.25q27,1.77,54.09,3.57c-11.69,9.56-24.69,19.4-39,29.18C314.25,314.3,302.74,321.48,291.76,327.85Z" transform="translate(-65.38 -96.58)"/></g><g class="cls-7"><path class="cls-6" d="M206.47,398.52" transform="translate(-65.38 -96.58)"/></g><g class="cls-7"><path class="cls-6" d="M-226.24,205.59" transform="translate(-65.38 -96.58)"/></g></g></g></svg>